<svg version="1.1" id="Layer_1" xmlns="http://www.w3.org/2000/svg" xmlns:xlink="http://www.w3.org/1999/xlink" x="0px" y="0px"
	 width="100%" viewBox="0 0 225 224" enable-background="new 0 0 225 224" xml:space="preserve">
<path fill="#CB2849" opacity="1.000000" stroke="none" 
	d="
M226.000000,175.000000 
	C226.000000,186.354233 226.000000,197.708450 225.668671,209.447205 
	C224.138458,208.967377 222.801941,208.242767 221.761551,207.217606 
	C207.798553,193.459198 193.876892,179.658844 179.951706,165.499573 
	C184.052124,157.560577 184.092331,149.267654 184.428558,140.729858 
	C186.689209,136.365524 188.565811,139.128494 190.222183,140.770370 
	C200.460526,150.919250 210.603271,161.164673 220.860718,171.294037 
	C222.345642,172.760406 224.275848,173.775879 226.000000,175.000000 
z"/>
<path fill="#D3893C" opacity="1.000000" stroke="none" 
	d="
M226.000000,75.000000 
	C226.000000,80.688042 226.000000,86.376083 225.668671,92.447891 
	C223.901260,91.730843 222.320312,90.775154 221.050369,89.507835 
	C193.829208,62.342888 166.633133,35.152744 139.478317,7.921502 
	C138.108582,6.547910 137.153610,4.760723 136.469498,3.103902 
	C142.624084,3.082901 148.314667,3.124109 154.037567,3.513061 
	C155.016647,5.376520 155.717758,7.136706 156.946732,8.371566 
	C178.089630,29.616049 199.273758,50.819805 220.544846,71.935799 
	C221.971375,73.351929 224.163803,73.996552 226.000000,75.000000 
z"/>
<path fill="#8A3E9F" opacity="1.000000" stroke="none" 
	d="
M1.000000,148.000000 
	C1.000000,143.310745 1.000000,138.621490 1.358139,133.496460 
	C3.364931,134.094955 5.278636,134.863174 6.623164,136.202698 
	C34.451458,163.927170 62.233494,191.698242 89.938179,219.546158 
	C91.354805,220.970123 91.997162,223.164383 93.000000,225.000000 
	C88.310745,225.000000 83.621490,225.000000 78.381851,224.668716 
	C76.850945,223.021881 76.015343,221.561768 74.868500,220.412109 
	C51.759789,197.246445 28.626852,174.104858 5.446127,151.011292 
	C4.200432,149.770279 2.492666,148.993103 1.000000,148.000000 
z"/>
<path fill="#913FA0" opacity="1.000000" stroke="none" 
	d="
M93.464645,225.000000 
	C91.997162,223.164383 91.354805,220.970123 89.938179,219.546158 
	C62.233494,191.698242 34.451458,163.927170 6.623164,136.202698 
	C5.278636,134.863174 3.364931,134.094955 1.358139,133.030350 
	C1.000000,128.975464 1.000000,124.950912 1.331306,120.547409 
	C3.209843,121.380379 4.896887,122.451462 6.282149,123.826569 
	C17.218637,134.682877 28.039652,145.656326 39.048653,156.438065 
	C40.983402,158.332870 43.631630,159.499176 46.150089,161.290833 
	C51.398537,174.069733 60.384335,182.342010 73.134140,186.965485 
	C74.293785,189.270111 75.138626,191.498734 76.665047,193.061722 
	C85.463287,202.070831 94.456963,210.888794 103.293625,219.860962 
	C104.758369,221.348145 105.775841,223.275848 107.000000,225.000000 
	C102.643097,225.000000 98.286201,225.000000 93.464645,225.000000 
z"/>
<path fill="#D4963B" opacity="1.000000" stroke="none" 
	d="
M226.000000,74.532394 
	C224.163803,73.996552 221.971375,73.351929 220.544846,71.935799 
	C199.273758,50.819805 178.089630,29.616049 156.946732,8.371566 
	C155.717758,7.136706 155.016647,5.376520 154.501251,3.450503 
	C160.290253,3.082100 165.647903,3.123999 171.096771,3.485276 
	C171.961121,4.871078 172.607635,6.063676 173.526138,6.985159 
	C189.620590,23.131697 205.733368,39.260086 221.900864,55.333366 
	C223.032486,56.458382 224.622925,57.121887 226.000000,58.000000 
	C226.000000,63.354931 226.000000,68.709862 226.000000,74.532394 
z"/>
<path fill="#7F3E9F" opacity="1.000000" stroke="none" 
	d="
M1.000000,148.466858 
	C2.492666,148.993103 4.200432,149.770279 5.446127,151.011292 
	C28.626852,174.104858 51.759789,197.246445 74.868500,220.412109 
	C76.015343,221.561768 76.850945,223.021881 77.915741,224.668716 
	C72.977905,225.000000 67.955818,225.000000 62.382721,224.668671 
	C60.964748,223.135849 60.242130,221.790497 59.209328,220.754318 
	C41.207737,202.693588 23.181526,184.657303 5.104786,166.671860 
	C3.971891,165.544678 2.378922,164.879913 0.999999,164.000000 
	C1.000000,158.977905 1.000000,153.955811 1.000000,148.466858 
z"/>
<path fill="#A03FA0" opacity="1.000000" stroke="none" 
	d="
M151.000000,225.000000 
	C141.645767,225.000000 132.291550,225.000000 122.384483,224.668671 
	C120.622330,222.792694 119.551353,221.111206 118.181023,219.725800 
	C109.923157,211.376907 101.531616,203.159180 93.344345,194.742371 
	C91.561737,192.909775 90.428009,190.445984 89.457100,188.184723 
	C99.611343,188.153992 109.303917,188.211426 119.033676,188.609924 
	C120.266998,190.687347 121.240776,192.642075 122.696053,194.123962 
	C130.951370,202.530212 139.385162,210.761795 147.596024,219.210480 
	C149.111710,220.770020 149.884384,223.051651 151.000000,225.000000 
z"/>
<path fill="#D27D3E" opacity="1.000000" stroke="none" 
	d="
M136.005508,3.166111 
	C137.153610,4.760723 138.108582,6.547910 139.478317,7.921502 
	C166.633133,35.152744 193.829208,62.342888 221.050369,89.507835 
	C222.320312,90.775154 223.901260,91.730843 225.668671,92.915833 
	C226.000000,96.361290 226.000000,99.722572 225.668716,103.457657 
	C223.900711,102.729919 222.318909,101.773727 221.048508,100.505569 
	C190.163193,69.674751 159.302505,38.819260 128.481293,7.924388 
	C127.110252,6.550084 126.152992,4.762993 125.457428,3.105106 
	C129.276413,3.083396 132.640961,3.124754 136.005508,3.166111 
z"/>
<path fill="#D5A13A" opacity="1.000000" stroke="none" 
	d="
M226.000000,57.531422 
	C224.622925,57.121887 223.032486,56.458382 221.900864,55.333366 
	C205.733368,39.260086 189.620590,23.131697 173.526138,6.985159 
	C172.607635,6.063676 171.961121,4.871078 171.561218,3.421781 
	C178.957962,3.081219 185.981476,3.123530 193.096405,3.485188 
	C203.505173,14.308861 213.815491,24.820187 224.165466,35.292305 
	C224.585571,35.717369 225.379990,35.772507 226.000000,36.000000 
	C226.000000,43.020947 226.000000,50.041897 226.000000,57.531422 
z"/>
<path fill="#C72A52" opacity="1.000000" stroke="none" 
	d="
M179.944962,165.868912 
	C193.876892,179.658844 207.798553,193.459198 221.761551,207.217606 
	C222.801941,208.242767 224.138458,208.967377 225.668671,209.915863 
	C226.000000,214.891235 226.000000,219.782455 226.000000,225.000000 
	C223.672455,225.000000 221.330963,225.000000 218.409729,224.663849 
	C215.969711,221.801895 214.381592,219.008362 212.203796,216.794998 
	C200.520813,204.921173 188.660294,193.222153 176.947998,181.376862 
	C175.359299,179.770142 174.259171,177.680328 173.066116,175.512833 
	C175.447922,172.097275 177.696442,168.983093 179.944962,165.868912 
z"/>
<path fill="#D2763F" opacity="1.000000" stroke="none" 
	d="
M125.002998,3.168173 
	C126.152992,4.762993 127.110252,6.550084 128.481293,7.924388 
	C159.302505,38.819260 190.163193,69.674751 221.048508,100.505569 
	C222.318909,101.773727 223.900711,102.729919 225.668716,103.915726 
	C226.000000,106.370560 226.000000,108.741112 225.641861,111.525528 
	C223.407410,110.677727 221.277206,109.673431 219.695450,108.113152 
	C208.374329,96.945625 197.209656,85.619308 185.867508,74.473457 
	C184.314789,72.947609 182.054916,72.141388 179.954773,70.696106 
	C175.878250,62.313129 169.502701,56.639252 161.890884,51.756790 
	C159.277832,48.177742 157.012985,44.671196 154.151779,41.748470 
	C143.132950,30.492800 131.898453,19.448544 120.814651,8.255863 
	C119.337753,6.764459 118.264320,4.873510 117.444695,3.104980 
	C120.257896,3.084306 122.630447,3.126240 125.002998,3.168173 
z"/>
<path fill="#C72A51" opacity="1.000000" stroke="none" 
	d="
M1.000000,5.000000 
	C1.000000,4.555664 1.000000,4.111328 1.467964,3.334098 
	C7.624961,3.056788 13.313993,3.112373 19.094654,3.486598 
	C20.548067,5.460769 21.791317,7.233136 23.290060,8.753670 
	C37.542080,23.212931 51.837456,37.629459 65.896286,52.315529 
	C62.847778,54.407166 60.023335,56.241550 56.855145,57.985569 
	C54.823421,56.579285 52.978260,55.421402 51.471790,53.923008 
	C36.466503,38.998180 21.539610,23.994488 6.519158,9.085022 
	C4.911658,7.489400 2.850636,6.350676 1.000000,5.000000 
z"/>
<path fill="#A23FA0" opacity="1.000000" stroke="none" 
	d="
M1.000001,94.000000 
	C1.000000,87.645599 1.000000,81.291206 1.331293,74.552643 
	C3.211170,75.381851 4.899236,76.454651 6.286160,77.830933 
	C16.882053,88.345490 27.374403,98.964874 38.023945,109.424393 
	C39.587955,110.960495 41.811928,111.824646 43.818558,113.460541 
	C43.846397,120.282166 43.786224,126.642967 43.401142,132.917664 
	C41.076412,131.413071 38.839931,130.234924 37.115570,128.536743 
	C26.734777,118.313576 16.500938,107.941277 6.135573,97.702255 
	C4.652153,96.236916 2.722914,95.222893 1.000001,94.000000 
z"/>
<path fill="#743F9F" opacity="1.000000" stroke="none" 
	d="
M0.999999,164.466125 
	C2.378922,164.879913 3.971891,165.544678 5.104786,166.671860 
	C23.181526,184.657303 41.207737,202.693588 59.209328,220.754318 
	C60.242130,221.790497 60.964748,223.135849 61.915859,224.668671 
	C57.310745,225.000000 52.621487,225.000000 47.381962,224.668671 
	C45.968204,223.139343 45.248039,221.798721 44.219482,220.764969 
	C31.213867,207.693680 18.182137,194.648117 5.092784,181.660797 
	C3.961864,180.538696 2.375043,179.876068 0.999999,179.000000 
	C1.000000,174.310745 1.000000,169.621490 0.999999,164.466125 
z"/>
<path fill="#9C3EA0" opacity="1.000000" stroke="none" 
	d="
M1.000001,94.466858 
	C2.722914,95.222893 4.652153,96.236916 6.135573,97.702255 
	C16.500938,107.941277 26.734777,118.313576 37.115570,128.536743 
	C38.839931,130.234924 41.076412,131.413071 43.485538,133.376923 
	C43.840996,138.615616 43.787148,143.308914 43.391922,147.966934 
	C41.313622,146.734314 39.354046,145.762604 37.875538,144.303436 
	C27.477400,134.041367 17.229130,123.627029 6.792505,113.404755 
	C5.239721,111.883858 2.949215,111.116150 1.000001,110.000000 
	C1.000000,104.977905 1.000000,99.955818 1.000001,94.466858 
z"/>
<path fill="#C32C5B" opacity="1.000000" stroke="none" 
	d="
M172.932831,175.814209 
	C174.259171,177.680328 175.359299,179.770142 176.947998,181.376862 
	C188.660294,193.222153 200.520813,204.921173 212.203796,216.794998 
	C214.381592,219.008362 215.969711,221.801895 217.914978,224.663849 
	C213.643097,225.000000 209.286194,225.000000 204.434387,224.641846 
	C202.791367,222.521118 201.900864,220.504608 200.453903,219.036591 
	C189.964706,208.394775 179.337006,197.889542 168.827118,187.267899 
	C167.348724,185.773773 166.272751,183.881485 165.238556,181.921478 
	C167.955368,179.717712 170.444092,177.765961 172.932831,175.814209 
z"/>
<path fill="#D6AA39" opacity="1.000000" stroke="none" 
	d="
M226.000000,35.531342 
	C225.379990,35.772507 224.585571,35.717369 224.165466,35.292305 
	C213.815491,24.820187 203.505173,14.308861 193.560852,3.420789 
	C204.622620,3.024696 215.311310,3.012348 226.000000,3.000000 
	C226.000000,13.687561 226.000000,24.375122 226.000000,35.531342 
z"/>
<path fill="#693F9F" opacity="1.000000" stroke="none" 
	d="
M0.999999,179.466125 
	C2.375043,179.876068 3.961864,180.538696 5.092784,181.660797 
	C18.182137,194.648117 31.213867,207.693680 44.219482,220.764969 
	C45.248039,221.798721 45.968204,223.139343 46.915848,224.668671 
	C42.310745,225.000000 37.621487,225.000000 32.435883,224.641846 
	C31.376883,223.120804 31.069876,221.706482 30.211861,220.834091 
	C21.996069,212.481018 13.730886,204.174774 5.350909,195.987061 
	C4.277841,194.938629 2.468342,194.643890 1.000002,194.000000 
	C1.000000,189.310745 1.000000,184.621490 0.999999,179.466125 
z"/>
<path fill="#973FA0" opacity="1.000000" stroke="none" 
	d="
M88.995422,188.272903 
	C90.428009,190.445984 91.561737,192.909775 93.344345,194.742371 
	C101.531616,203.159180 109.923157,211.376907 118.181023,219.725800 
	C119.551353,221.111206 120.622330,222.792694 121.915825,224.668671 
	C117.310745,225.000000 112.621490,225.000000 107.466125,225.000000 
	C105.775841,223.275848 104.758369,221.348145 103.293625,219.860962 
	C94.456963,210.888794 85.463287,202.070831 76.665047,193.061722 
	C75.138626,191.498734 74.293785,189.270111 73.550369,187.027954 
	C78.976204,187.228958 83.985817,187.750931 88.995422,188.272903 
z"/>
<path fill="#C42C59" opacity="1.000000" stroke="none" 
	d="
M1.000000,5.458069 
	C2.850636,6.350676 4.911658,7.489400 6.519158,9.085022 
	C21.539610,23.994488 36.466503,38.998180 51.471790,53.923008 
	C52.978260,55.421402 54.823421,56.579285 56.713123,58.290649 
	C54.973858,60.529549 53.032867,62.372997 50.913837,63.919121 
	C35.770687,48.548691 20.833736,33.447323 5.787259,18.455887 
	C4.577146,17.250202 2.613487,16.800829 1.000000,16.000000 
	C1.000000,12.638713 1.000000,9.277426 1.000000,5.458069 
z"/>
<path fill="#BD2F66" opacity="1.000000" stroke="none" 
	d="
M165.010498,182.173492 
	C166.272751,183.881485 167.348724,185.773773 168.827118,187.267899 
	C179.337006,197.889542 189.964706,208.394775 200.453903,219.036591 
	C201.900864,220.504608 202.791367,222.521118 203.969742,224.641846 
	C199.975449,225.000000 195.950912,225.000000 191.432983,224.641846 
	C189.791718,222.521317 188.898834,220.508530 187.454300,219.037460 
	C178.498672,209.917465 169.361435,200.975433 160.436493,191.826065 
	C158.915482,190.266815 158.127411,187.992630 157.284393,185.851730 
	C160.048843,184.494324 162.529678,183.333908 165.010498,182.173492 
z"/>
<path fill="#963FA0" opacity="1.000000" stroke="none" 
	d="
M1.000001,110.454109 
	C2.949215,111.116150 5.239721,111.883858 6.792505,113.404755 
	C17.229130,123.627029 27.477400,134.041367 37.875538,144.303436 
	C39.354046,145.762604 41.313622,146.734314 43.483345,148.390518 
	C44.594219,152.900238 45.272289,156.951065 45.950359,161.001907 
	C43.631630,159.499176 40.983402,158.332870 39.048653,156.438065 
	C28.039652,145.656326 17.218637,134.682877 6.282149,123.826569 
	C4.896887,122.451462 3.209843,121.380379 1.331306,120.084221 
	C1.000000,116.969406 1.000000,113.938812 1.000001,110.454109 
z"/>
<path fill="#1F1F1F" opacity="1.000000" stroke="none" 
	d="
M226.000000,2.500000 
	C215.311310,3.012348 204.622620,3.024696 193.469467,3.101443 
	C185.981476,3.123530 178.957962,3.081219 171.469986,3.102403 
	C165.647903,3.123999 160.290253,3.082100 154.468933,3.102759 
	C148.314667,3.124109 142.624084,3.082901 136.469498,3.103902 
	C132.640961,3.124754 129.276413,3.083396 125.457428,3.105106 
	C122.630447,3.126240 120.257896,3.084306 116.994217,3.040441 
	C113.070854,3.081762 110.038628,3.125016 106.551865,3.103259 
	C102.733826,3.081235 99.370323,3.124221 95.560097,3.103485 
	C92.410507,3.081672 89.707634,3.123581 86.563728,3.102746 
	C83.748878,3.081906 81.375069,3.123811 78.554794,3.103477 
	C75.407043,3.083218 72.705742,3.125200 69.563446,3.105203 
	C66.749474,3.084478 64.376503,3.125730 61.562592,3.105532 
	C58.748955,3.084680 56.376247,3.125278 53.538223,3.104544 
	C41.716278,3.084795 30.359652,3.126376 19.003025,3.167957 
	C13.313993,3.112373 7.624961,3.056788 1.467964,3.000602 
	C1.166667,2.333333 1.229735,1.149261 1.518317,1.091479 
	C2.640014,0.866886 3.833333,1.000000 5.000000,1.000000 
	C77.333336,1.000000 149.666672,0.994638 221.999969,1.041650 
	C223.333511,1.042517 224.666672,1.666667 226.000000,2.500000 
z"/>
<path fill="#D16340" opacity="1.000000" stroke="none" 
	d="
M226.000000,122.000000 
	C226.000000,125.362099 226.000000,128.724197 225.668732,132.458847 
	C223.787476,131.616623 222.098358,130.542114 220.709732,129.164658 
	C210.454788,118.992439 200.305252,108.713470 189.997665,98.595322 
	C188.419525,97.046196 186.198715,96.151787 184.184906,94.509911 
	C184.121338,91.026787 184.148010,87.988319 184.584351,84.978714 
	C187.068802,86.244690 189.482864,87.134598 191.162689,88.775970 
	C201.141602,98.526283 210.919754,108.481773 220.849869,118.282692 
	C222.338943,119.752419 224.272217,120.772118 226.000000,122.000000 
z"/>
<path fill="#D05742" opacity="1.000000" stroke="none" 
	d="
M184.275131,94.954567 
	C186.198715,96.151787 188.419525,97.046196 189.997665,98.595322 
	C200.305252,108.713470 210.454788,118.992439 220.709732,129.164658 
	C222.098358,130.542114 223.787476,131.616623 225.668732,132.915695 
	C226.000000,135.700012 226.000000,138.400024 225.641876,141.519684 
	C223.520782,140.790695 221.505142,139.898697 220.035568,138.452011 
	C209.975769,128.549103 200.077133,118.482307 189.999985,108.597366 
	C188.421295,107.048775 186.199219,106.156097 184.183853,104.515060 
	C184.153748,101.031509 184.214447,97.993042 184.275131,94.954567 
z"/>
<path fill="#D26D42" opacity="1.000000" stroke="none" 
	d="
M226.000000,121.545891 
	C224.272217,120.772118 222.338943,119.752419 220.849869,118.282692 
	C210.919754,108.481773 201.141602,98.526283 191.162689,88.775970 
	C189.482864,87.134598 187.068802,86.244690 184.478424,84.646759 
	C182.682724,79.857956 181.402588,75.429970 180.122452,71.001984 
	C182.054916,72.141388 184.314789,72.947609 185.867508,74.473457 
	C197.209656,85.619308 208.374329,96.945625 219.695450,108.113152 
	C221.277206,109.673431 223.407410,110.677727 225.641861,111.969696 
	C226.000000,115.030594 226.000000,118.061188 226.000000,121.545891 
z"/>
<path fill="#BC2F68" opacity="1.000000" stroke="none" 
	d="
M1.000000,36.000000 
	C1.000000,33.299370 1.000000,30.598742 1.336170,27.534061 
	C4.069385,28.901548 6.717261,30.374323 8.818437,32.411087 
	C16.410023,39.769962 23.871273,47.265991 31.277073,54.812931 
	C36.719627,60.359219 41.998676,66.065948 47.258682,72.013809 
	C46.698330,73.549423 46.229885,74.772392 45.418541,75.959488 
	C43.338840,74.737595 41.373795,73.782661 39.901657,72.328667 
	C28.942068,61.504200 18.131865,50.528099 7.132467,39.744747 
	C5.466115,38.111126 3.062561,37.229473 1.000000,36.000000 
z"/>
<path fill="#B13681" opacity="1.000000" stroke="none" 
	d="
M1.000000,59.000000 
	C1.000000,56.629444 1.000000,54.258884 1.358132,51.474461 
	C3.482234,52.212227 5.501383,53.106819 6.973487,54.556801 
	C17.287188,64.715538 27.460438,75.016769 37.755283,85.194862 
	C39.251671,86.674286 41.156876,87.740204 42.948563,89.442360 
	C42.972862,92.590088 42.921497,95.292923 42.548191,97.905945 
	C40.685417,96.578529 39.018486,95.467911 37.623837,94.083084 
	C27.116163,83.649391 16.691282,73.132187 6.158040,62.724556 
	C4.667338,61.251633 2.730399,60.230335 1.000000,59.000000 
z"/>
<path fill="#5E3F9F" opacity="1.000000" stroke="none" 
	d="
M1.000002,194.463165 
	C2.468342,194.643890 4.277841,194.938629 5.350909,195.987061 
	C13.730886,204.174774 21.996069,212.481018 30.211861,220.834091 
	C31.069876,221.706482 31.376883,223.120804 31.969769,224.641846 
	C27.975456,225.000000 23.950911,225.000000 19.379011,224.668671 
	C12.887771,218.558243 6.943886,212.779114 1.000000,207.000000 
	C1.000000,202.975449 1.000000,198.950912 1.000002,194.463165 
z"/>
<path fill="#B83270" opacity="1.000000" stroke="none" 
	d="
M1.000000,36.437500 
	C3.062561,37.229473 5.466115,38.111126 7.132467,39.744747 
	C18.131865,50.528099 28.942068,61.504200 39.901657,72.328667 
	C41.373795,73.782661 43.338840,74.737595 45.424278,76.323166 
	C45.167027,78.814835 44.561146,80.906952 43.627182,82.912865 
	C41.750660,81.602257 40.067188,80.513885 38.675220,79.131889 
	C27.815250,68.349747 17.039669,57.482483 6.156980,46.723484 
	C4.667119,45.250557 2.730029,44.230000 1.000000,43.000000 
	C1.000000,40.958332 1.000000,38.916668 1.000000,36.437500 
z"/>
<path fill="#A73B95" opacity="1.000000" stroke="none" 
	d="
M43.730541,112.999710 
	C41.811928,111.824646 39.587955,110.960495 38.023945,109.424393 
	C27.374403,98.964874 16.882053,88.345490 6.286160,77.830933 
	C4.899236,76.454651 3.211170,75.381851 1.331293,74.084244 
	C1.000000,71.958336 1.000000,69.916664 1.358166,67.467575 
	C3.479725,68.209312 5.496496,69.101280 6.965856,70.548897 
	C17.379683,80.808548 27.634085,91.230225 38.069771,101.467255 
	C39.632942,103.000664 41.878109,103.838837 43.866249,105.440025 
	C43.859989,108.254189 43.795265,110.626945 43.730541,112.999710 
z"/>
<path fill="#CD3146" opacity="1.000000" stroke="none" 
	d="
M226.000000,174.555832 
	C224.275848,173.775879 222.345642,172.760406 220.860718,171.294037 
	C210.603271,161.164673 200.460526,150.919250 190.222183,140.770370 
	C188.565811,139.128494 186.689209,136.365524 184.335419,140.277740 
	C184.143173,136.397247 184.208313,132.700485 184.613937,129.041733 
	C186.692062,130.275742 188.652969,131.245438 190.131378,132.704163 
	C200.416077,142.851776 210.570816,153.131088 220.850540,163.283829 
	C222.338760,164.753677 224.272461,165.772476 226.000000,167.000000 
	C226.000000,169.370560 226.000000,171.741104 226.000000,174.555832 
z"/>
<path fill="#CF4D43" opacity="1.000000" stroke="none" 
	d="
M184.274643,104.960136 
	C186.199219,106.156097 188.421295,107.048775 189.999985,108.597366 
	C200.077133,118.482307 209.975769,128.549103 220.035568,138.452011 
	C221.505142,139.898697 223.520782,140.790695 225.641876,141.969666 
	C226.000000,144.700012 226.000000,147.400024 225.668716,150.465729 
	C223.787003,149.616211 222.097412,148.541306 220.708359,147.163422 
	C210.450272,136.987946 200.298340,126.704964 189.985779,116.585449 
	C188.418884,115.047882 186.194000,114.180847 184.181946,112.597946 
	C184.151840,109.781525 184.213242,107.370827 184.274643,104.960136 
z"/>
<path fill="#CF4444" opacity="1.000000" stroke="none" 
	d="
M184.273468,113.003670 
	C186.194000,114.180847 188.418884,115.047882 189.985779,116.585449 
	C200.298340,126.704964 210.450272,136.987946 220.708359,147.163422 
	C222.097412,148.541306 223.787003,149.616211 225.668716,150.915710 
	C226.000000,153.370560 226.000000,155.741104 225.668701,158.471619 
	C223.786957,157.616470 222.097351,156.541656 220.708328,155.163818 
	C210.450500,144.988571 200.298813,134.705811 189.986526,124.586510 
	C188.419662,123.048965 186.194931,122.181854 184.181702,120.568008 
	C184.150436,117.755463 184.211945,115.379570 184.273468,113.003670 
z"/>
<path fill="#CE3B45" opacity="1.000000" stroke="none" 
	d="
M184.274475,121.004654 
	C186.194931,122.181854 188.419662,123.048965 189.986526,124.586510 
	C200.298813,134.705811 210.450500,144.988571 220.708328,155.163818 
	C222.097351,156.541656 223.786957,157.616470 225.668701,158.915802 
	C226.000000,161.370560 226.000000,163.741104 226.000000,166.555832 
	C224.272461,165.772476 222.338760,164.753677 220.850540,163.283829 
	C210.570816,153.131088 200.416077,142.851776 190.131378,132.704163 
	C188.652969,131.245438 186.692062,130.275742 184.520477,128.605377 
	C184.149155,125.755547 184.211823,123.380104 184.274475,121.004654 
z"/>
<path fill="#B13681" opacity="1.000000" stroke="none" 
	d="
M176.000000,225.000000 
	C173.299377,225.000000 170.598740,225.000000 167.364899,224.668671 
	C165.619202,222.789612 164.545349,221.104706 163.171646,219.716537 
	C154.660278,211.115494 146.026093,202.635223 137.575974,193.975021 
	C136.044769,192.405777 135.176254,190.189896 134.421631,188.187195 
	C137.562088,188.443954 140.282700,188.786057 143.093063,189.450272 
	C144.420273,191.313354 145.532501,192.978378 146.915726,194.375015 
	C155.345703,202.886810 163.873291,211.302200 172.274338,219.842194 
	C173.744598,221.336807 174.769440,223.269592 176.000000,225.000000 
z"/>
<path fill="#B93270" opacity="1.000000" stroke="none" 
	d="
M157.000748,186.048706 
	C158.127411,187.992630 158.915482,190.266815 160.436493,191.826065 
	C169.361435,200.975433 178.498672,209.917465 187.454300,219.037460 
	C188.898834,220.508530 189.791718,222.521317 190.969803,224.641846 
	C188.629440,225.000000 186.258896,225.000000 183.369125,224.655853 
	C181.471695,222.280075 180.358719,219.989365 178.670288,218.260712 
	C170.426086,209.820023 161.991791,201.565292 153.718918,193.152161 
	C152.250809,191.659180 151.228256,189.728058 150.315704,187.810883 
	C152.754562,187.097916 154.877655,186.573318 157.000748,186.048706 
z"/>
<path fill="#B53378" opacity="1.000000" stroke="none" 
	d="
M1.000000,43.444164 
	C2.730029,44.230000 4.667119,45.250557 6.156980,46.723484 
	C17.039669,57.482483 27.815250,68.349747 38.675220,79.131889 
	C40.067188,80.513885 41.750660,81.602257 43.680611,83.298920 
	C43.665722,85.513283 43.269310,87.255371 42.872902,88.997467 
	C41.156876,87.740204 39.251671,86.674286 37.755283,85.194862 
	C27.460438,75.016769 17.287188,64.715538 6.973487,54.556801 
	C5.501383,53.106819 3.482234,52.212227 1.358132,51.030296 
	C1.000000,48.629444 1.000000,46.258884 1.000000,43.444164 
z"/>
<path fill="#AC388B" opacity="1.000000" stroke="none" 
	d="
M43.807781,104.998627 
	C41.878109,103.838837 39.632942,103.000664 38.069771,101.467255 
	C27.634085,91.230225 17.379683,80.808548 6.965856,70.548897 
	C5.496496,69.101280 3.479725,68.209312 1.358166,67.030075 
	C1.000000,64.629440 1.000000,62.258884 1.000000,59.444164 
	C2.730399,60.230335 4.667338,61.251633 6.158040,62.724556 
	C16.691282,73.132187 27.116163,83.649391 37.623837,94.083084 
	C39.018486,95.467911 40.685417,96.578529 42.623497,98.304688 
	C43.283096,100.861694 43.545441,102.930161 43.807781,104.998627 
z"/>
<path fill="#A83C95" opacity="1.000000" stroke="none" 
	d="
M151.444168,225.000000 
	C149.884384,223.051651 149.111710,220.770020 147.596024,219.210480 
	C139.385162,210.761795 130.951370,202.530212 122.696053,194.123962 
	C121.240776,192.642075 120.266998,190.687347 119.472595,188.525360 
	C122.250229,188.156418 124.626122,188.213074 127.039612,188.610580 
	C128.271637,190.688095 129.242859,192.643967 130.697403,194.125214 
	C138.952072,202.531311 147.385620,210.762375 155.596085,219.210648 
	C157.111710,220.770172 157.884415,223.051697 159.000000,225.000000 
	C156.629440,225.000000 154.258896,225.000000 151.444168,225.000000 
z"/>
<path fill="#C12D5F" opacity="1.000000" stroke="none" 
	d="
M1.000000,16.428463 
	C2.613487,16.800829 4.577146,17.250202 5.787259,18.455887 
	C20.833736,33.447323 35.770687,48.548691 50.920650,64.211823 
	C50.637897,65.624725 50.170288,66.447594 49.367752,67.095062 
	C47.413605,65.504829 45.708870,64.175858 44.188686,62.661617 
	C31.839449,50.360653 19.571003,37.977997 7.144610,25.755791 
	C5.477664,24.116234 3.066524,23.233303 1.000000,22.000000 
	C1.000000,20.285643 1.000000,18.571283 1.000000,16.428463 
z"/>
<path fill="#B53378" opacity="1.000000" stroke="none" 
	d="
M149.999954,187.999268 
	C151.228256,189.728058 152.250809,191.659180 153.718918,193.152161 
	C161.991791,201.565292 170.426086,209.820023 178.670288,218.260712 
	C180.358719,219.989365 181.471695,222.280075 182.924957,224.655853 
	C180.958328,225.000000 178.916672,225.000000 176.437500,225.000000 
	C174.769440,223.269592 173.744598,221.336807 172.274338,219.842194 
	C163.873291,211.302200 155.345703,202.886810 146.915726,194.375015 
	C145.532501,192.978378 144.420273,191.313354 143.487228,189.374512 
	C145.861084,188.650848 147.930527,188.325058 149.999954,187.999268 
z"/>
<path fill="#AC388B" opacity="1.000000" stroke="none" 
	d="
M159.444168,225.000000 
	C157.884415,223.051697 157.111710,220.770172 155.596085,219.210648 
	C147.385620,210.762375 138.952072,202.531311 130.697403,194.125214 
	C129.242859,192.643967 128.271637,190.688095 127.471664,188.526871 
	C129.911346,188.159058 131.956589,188.215790 134.001816,188.272522 
	C135.176254,190.189896 136.044769,192.405777 137.575974,193.975021 
	C146.026093,202.635223 154.660278,211.115494 163.171646,219.716537 
	C164.545349,221.104706 165.619202,222.789612 166.915833,224.668671 
	C164.629440,225.000000 162.258896,225.000000 159.444168,225.000000 
z"/>
<path fill="#BF2E62" opacity="1.000000" stroke="none" 
	d="
M1.000000,22.416666 
	C3.066524,23.233303 5.477664,24.116234 7.144610,25.755791 
	C19.571003,37.977997 31.839449,50.360653 44.188686,62.661617 
	C45.708870,64.175858 47.413605,65.504829 49.161331,67.409172 
	C48.643433,69.166191 47.997017,70.433685 47.350597,71.701180 
	C41.998676,66.065948 36.719627,60.359219 31.277073,54.812931 
	C23.871273,47.265991 16.410023,39.769962 8.818437,32.411087 
	C6.717261,30.374323 4.069385,28.901548 1.336170,27.085005 
	C1.000000,25.611111 1.000000,24.222221 1.000000,22.416666 
z"/>
<path fill="#523F9E" opacity="1.000000" stroke="none" 
	d="
M1.000000,207.469711 
	C6.943886,212.779114 12.887771,218.558243 18.915829,224.668671 
	C13.074268,225.000000 7.148537,225.000000 1.000000,225.000000 
	C1.000000,219.315063 1.000000,213.627243 1.000000,207.469711 
z"/>
<path fill="#FDFAFB" opacity="1.000000" stroke="none" 
	d="
M47.258686,72.013809 
	C47.997017,70.433685 48.643433,69.166191 49.496265,67.584579 
	C50.170288,66.447594 50.637897,65.624725 51.098690,64.509155 
	C53.032867,62.372997 54.973858,60.529549 57.056873,58.381020 
	C60.023335,56.241550 62.847778,54.407166 66.261017,52.275463 
	C68.537277,51.317471 70.180084,50.260612 71.919930,50.064461 
	C79.596207,49.199017 87.300430,48.581512 95.433517,47.952652 
	C98.246651,47.977715 100.620811,47.924332 103.433846,47.949707 
	C106.247032,47.975857 108.621330,47.923252 111.435425,47.948692 
	C114.248909,47.926750 116.622604,47.826763 119.432968,47.818993 
	C122.245506,47.850918 124.621391,47.790623 127.443825,47.821323 
	C130.925354,47.851501 133.960327,47.790684 137.393066,47.820457 
	C140.810928,47.877728 143.831055,47.844402 147.196747,47.917747 
	C152.349930,49.382099 157.157547,50.739773 161.965164,52.097450 
	C169.502701,56.639252 175.878250,62.313129 179.954773,70.696106 
	C181.402588,75.429970 182.682724,79.857956 184.068787,84.617897 
	C184.148010,87.988319 184.121338,91.026787 184.184906,94.509911 
	C184.214447,97.993042 184.153748,101.031509 184.183853,104.515060 
	C184.213242,107.370827 184.151840,109.781525 184.181946,112.597946 
	C184.211945,115.379570 184.150436,117.755463 184.181702,120.568008 
	C184.211823,123.380104 184.149155,125.755547 184.179962,128.567352 
	C184.208313,132.700485 184.143173,136.397247 184.171204,140.546127 
	C184.092331,149.267654 184.052124,157.560577 179.951706,165.499573 
	C177.696442,168.983093 175.447922,172.097275 173.066116,175.512833 
	C170.444092,177.765961 167.955368,179.717712 165.238556,181.921478 
	C162.529678,183.333908 160.048843,184.494324 157.284393,185.851715 
	C154.877655,186.573318 152.754562,187.097916 150.315704,187.810883 
	C147.930527,188.325058 145.861084,188.650848 143.397491,189.052399 
	C140.282700,188.786057 137.562088,188.443954 134.421631,188.187195 
	C131.956589,188.215790 129.911346,188.159058 127.434067,188.186035 
	C124.626122,188.213074 122.250229,188.156418 119.435410,188.184311 
	C109.303917,188.211426 99.611343,188.153992 89.457100,188.184723 
	C83.985817,187.750931 78.976204,187.228958 73.550369,186.644501 
	C60.384335,182.342010 51.398537,174.069733 46.150089,161.290833 
	C45.272289,156.951065 44.594219,152.900238 43.824722,148.425812 
	C43.787148,143.308914 43.840996,138.615616 43.810448,133.463043 
	C43.786224,126.642967 43.846397,120.282166 43.818558,113.460541 
	C43.795265,110.626945 43.859989,108.254189 43.866249,105.440025 
	C43.545441,102.930161 43.283096,100.861694 42.945442,98.394493 
	C42.921497,95.292923 42.972862,92.590088 42.948563,89.442360 
	C43.269310,87.255371 43.665722,85.513283 44.008698,83.385132 
	C44.561146,80.906952 45.167027,78.814835 45.767174,76.359039 
	C46.229885,74.772392 46.698330,73.549423 47.258686,72.013809 
M123.233978,61.097645 
	C122.152588,61.146927 121.071198,61.196209 119.111580,61.097012 
	C116.737373,61.144295 114.363167,61.191578 111.063255,61.092232 
	C105.951668,61.080601 100.830933,60.871094 95.730782,61.106895 
	C89.199585,61.408852 82.684952,62.069401 75.483818,62.643951 
	C71.783958,65.004906 68.084106,67.365852 63.852539,70.085030 
	C62.182423,73.039665 60.512306,75.994301 58.331333,79.518745 
	C57.915859,83.010643 57.500385,86.502533 56.916100,90.882339 
	C56.981045,93.585281 57.045994,96.288231 56.924278,99.852112 
	C56.983692,101.898453 57.043106,103.944794 56.919067,106.852882 
	C56.980400,108.900162 57.041733,110.947433 56.925297,113.783607 
	C56.970364,114.855202 57.015427,115.926804 56.892483,117.820824 
	C56.966160,119.210884 57.039837,120.600945 56.935658,122.811722 
	C56.994766,124.204437 57.053875,125.597160 56.932343,127.834473 
	C56.991848,129.553833 57.051357,131.273193 56.931366,133.915680 
	C56.916248,139.063950 56.675266,144.223541 56.932182,149.358200 
	C57.498451,160.675415 62.743858,169.826157 73.545761,172.981277 
	C81.865326,175.411346 91.148354,174.542923 100.840294,175.358765 
	C102.560867,175.285767 104.281448,175.212784 106.818008,175.354248 
	C108.213219,175.283371 109.608421,175.212494 111.817215,175.365234 
	C113.212128,175.292221 114.607048,175.219193 116.868530,175.368454 
	C119.245453,175.293991 121.622375,175.219528 124.866547,175.366516 
	C127.244850,175.292023 129.623154,175.217529 132.886322,175.371384 
	C135.923599,175.296890 138.960876,175.222397 142.866806,175.369843 
	C146.613525,174.665070 150.360229,173.960312 154.830566,173.177505 
	C157.686783,171.167191 160.543015,169.156876 163.949936,166.794617 
	C165.978043,162.863266 168.006149,158.931931 170.533966,154.320145 
	C170.653992,142.882446 170.774033,131.444763 171.083755,119.133858 
	C171.017715,116.758568 170.951675,114.383270 171.075058,111.148079 
	C171.013275,109.102005 170.951492,107.055923 171.082642,104.117348 
	C171.019699,101.081558 170.956757,98.045769 171.081268,94.116096 
	C170.997162,91.082138 170.913071,88.048172 170.934250,84.246887 
	C167.691284,70.581841 160.288361,63.526829 146.118195,61.181290 
	C143.741287,61.201973 141.364380,61.222652 138.100769,61.097698 
	C135.397507,61.145741 132.694229,61.193787 129.148911,61.098495 
	C127.444283,61.147369 125.739655,61.196239 123.233978,61.097645 
z"/>
<path fill="#D26E41" opacity="1.000000" stroke="none" 
	d="
M161.890884,51.756790 
	C157.157547,50.739773 152.349930,49.382099 147.207947,47.502319 
	C145.665039,44.902946 144.819260,42.470428 143.189209,40.805984 
	C132.486862,29.877794 121.589561,19.140806 110.828735,8.269312 
	C109.348068,6.773414 108.270554,4.878468 107.006393,3.168268 
	C110.038628,3.125016 113.070854,3.081762 116.553566,3.103048 
	C118.264320,4.873510 119.337753,6.764459 120.814651,8.255863 
	C131.898453,19.448544 143.132950,30.492800 154.151779,41.748470 
	C157.012985,44.671196 159.277832,48.177742 161.890884,51.756790 
z"/>
<path fill="#CB2849" opacity="1.000000" stroke="none" 
	d="
M94.994537,47.874210 
	C87.300430,48.581512 79.596207,49.199017 71.919930,50.064461 
	C70.180084,50.260612 68.537277,51.317471 66.485085,52.018211 
	C51.837456,37.629459 37.542080,23.212931 23.290060,8.753670 
	C21.791317,7.233136 20.548067,5.460769 19.094654,3.486598 
	C30.359652,3.126376 41.716278,3.084795 53.629616,3.423384 
	C55.430424,5.341986 56.551029,7.003103 57.938206,8.399379 
	C68.733978,19.265959 79.639206,30.024607 90.358231,40.965889 
	C92.266235,42.913456 93.467133,45.553772 94.994537,47.874210 
z"/>
<path fill="#D16340" opacity="1.000000" stroke="none" 
	d="
M106.551865,3.103258 
	C108.270554,4.878468 109.348068,6.773414 110.828735,8.269312 
	C121.589561,19.140806 132.486862,29.877794 143.189209,40.805984 
	C144.819260,42.470428 145.665039,44.902946 146.862366,47.395645 
	C143.831055,47.844402 140.810928,47.877728 137.355515,47.480209 
	C135.722443,45.308510 134.752808,43.342205 133.290634,41.862652 
	C122.181725,30.621729 110.951515,19.500719 99.831017,8.271126 
	C98.349258,6.774834 97.271606,4.878361 96.006821,3.167210 
	C99.370323,3.124221 102.733826,3.081235 106.551865,3.103258 
z"/>
<path fill="#D05741" opacity="1.000000" stroke="none" 
	d="
M95.560089,3.103487 
	C97.271606,4.878361 98.349258,6.774834 99.831017,8.271126 
	C110.951515,19.500719 122.181725,30.621729 133.290634,41.862652 
	C134.752808,43.342205 135.722443,45.308510 136.957764,47.389618 
	C133.960327,47.790684 130.925354,47.851501 127.408081,47.472870 
	C125.457047,44.695816 124.346024,42.008709 122.460190,40.078644 
	C112.008789,29.382118 101.342659,18.895714 90.823524,8.264671 
	C89.343987,6.769394 88.267708,4.875093 87.004768,3.165490 
	C89.707634,3.123581 92.410507,3.081672 95.560089,3.103487 
z"/>
<path fill="#CF4D43" opacity="1.000000" stroke="none" 
	d="
M86.563728,3.102745 
	C88.267708,4.875093 89.343987,6.769394 90.823524,8.264671 
	C101.342659,18.895714 112.008789,29.382118 122.460190,40.078644 
	C124.346024,42.008709 125.457047,44.695816 126.961533,47.381866 
	C124.621391,47.790623 122.245506,47.850918 119.395401,47.478863 
	C117.721268,45.304798 116.748627,43.338547 115.285164,41.857197 
	C104.403084,30.842081 93.377419,19.968571 82.527084,8.922644 
	C80.990616,7.358474 80.159073,5.101845 79.001251,3.165718 
	C81.375069,3.123811 83.748878,3.081906 86.563728,3.102745 
z"/>
<path fill="#CF4444" opacity="1.000000" stroke="none" 
	d="
M78.554794,3.103478 
	C80.159073,5.101845 80.990616,7.358474 82.527084,8.922644 
	C93.377419,19.968571 104.403084,30.842081 115.285164,41.857197 
	C116.748627,43.338547 117.721268,45.304798 118.958740,47.386642 
	C116.622604,47.826763 114.248909,47.926750 111.403427,47.598885 
	C109.767197,45.426956 108.846489,43.442150 107.399551,41.977043 
	C96.247620,30.685148 84.969055,19.518387 73.801193,8.242070 
	C72.328743,6.755320 71.260109,4.868638 70.004448,3.167182 
	C72.705742,3.125200 75.407043,3.083218 78.554794,3.103478 
z"/>
<path fill="#CD3146" opacity="1.000000" stroke="none" 
	d="
M95.433517,47.952652 
	C93.467133,45.553772 92.266235,42.913456 90.358231,40.965889 
	C79.639206,30.024607 68.733978,19.265959 57.938206,8.399379 
	C56.551029,7.003103 55.430424,5.341986 54.094936,3.484715 
	C56.376247,3.125278 58.748955,3.084680 61.654072,3.424293 
	C63.421707,5.333765 64.533272,6.985918 65.911674,8.372879 
	C77.106613,19.637299 88.397072,30.807297 99.528053,42.134182 
	C101.051773,43.684719 101.857048,45.941277 102.994965,47.870953 
	C100.620811,47.924332 98.246651,47.977715 95.433517,47.952652 
z"/>
<path fill="#CE3B45" opacity="1.000000" stroke="none" 
	d="
M103.433846,47.949707 
	C101.857048,45.941277 101.051773,43.684719 99.528053,42.134182 
	C88.397072,30.807297 77.106613,19.637299 65.911674,8.372879 
	C64.533272,6.985918 63.421707,5.333765 62.095001,3.485743 
	C64.376503,3.125730 66.749474,3.084478 69.563446,3.105204 
	C71.260109,4.868638 72.328743,6.755320 73.801193,8.242070 
	C84.969055,19.518387 96.247620,30.685148 107.399551,41.977043 
	C108.846489,43.442150 109.767197,45.426956 110.963646,47.520840 
	C108.621330,47.923252 106.247032,47.975857 103.433846,47.949707 
z"/>
<path fill="#A13FA0" opacity="1.000000" stroke="none" 
	d="
M100.002975,175.141205 
	C91.148354,174.542923 81.865326,175.411346 73.545761,172.981277 
	C62.743858,169.826157 57.498451,160.675415 56.932182,149.358200 
	C56.675266,144.223541 56.916248,139.063950 57.371971,133.487808 
	C59.443157,134.108414 61.316921,134.910797 62.666096,136.244049 
	C74.089874,147.533081 85.445412,158.891815 96.738571,170.311584 
	C98.081459,171.669525 98.926933,173.519363 100.002975,175.141205 
z"/>
<path fill="#CB294A" opacity="1.000000" stroke="none" 
	d="
M76.163185,62.575428 
	C82.684952,62.069401 89.199585,61.408852 95.730782,61.106895 
	C100.830933,60.871094 105.951668,61.080601 111.562325,61.508423 
	C113.122940,63.530731 113.970917,65.342499 115.284126,66.706276 
	C120.180222,71.790894 125.314003,76.648552 130.148514,81.788948 
	C131.112106,82.813515 131.150604,84.708130 131.253632,86.179611 
	C120.087280,80.737137 109.167580,80.767387 97.980209,85.145073 
	C90.595291,77.408913 83.379234,69.992172 76.163185,62.575428 
z"/>
<path fill="#CB294A" opacity="1.000000" stroke="none" 
	d="
M170.894073,120.007065 
	C170.774033,131.444763 170.653992,142.882446 169.950165,154.577972 
	C163.989044,149.802551 158.669800,144.704987 153.204254,139.769455 
	C151.177765,137.939468 148.807877,136.489761 146.685883,134.493301 
	C152.118042,122.684837 150.988815,111.421654 146.116028,100.087830 
	C147.827148,100.697693 149.561386,101.209160 150.726196,102.318497 
	C155.481827,106.847687 159.963852,111.666222 164.761841,116.147804 
	C166.495224,117.766861 168.832413,118.739464 170.894073,120.007065 
z"/>
<path fill="#CD3148" opacity="1.000000" stroke="none" 
	d="
M170.988922,119.570465 
	C168.832413,118.739464 166.495224,117.766861 164.761841,116.147804 
	C159.963852,111.666222 155.481827,106.847687 150.726196,102.318497 
	C149.561386,101.209160 147.827148,100.697693 145.841125,99.884285 
	C140.756927,95.305328 136.186295,90.753441 131.615677,86.201553 
	C131.150604,84.708130 131.112106,82.813515 130.148514,81.788948 
	C125.314003,76.648552 120.180222,71.790894 115.284126,66.706276 
	C113.970917,65.342499 113.122940,63.530731 112.025177,61.581741 
	C114.363167,61.191578 116.737373,61.144295 119.587051,61.513729 
	C121.012108,63.423588 121.745293,65.125542 122.949196,66.373306 
	C127.864449,71.467682 132.863403,76.485855 137.967239,81.390862 
	C139.455673,82.821304 141.394455,83.783134 143.409302,85.074982 
	C144.849609,86.309418 146.007401,87.428627 147.200928,88.910797 
	C154.466110,96.736198 161.683105,104.210876 168.960464,111.626289 
	C169.338898,112.011902 170.232101,111.892342 170.885635,112.007980 
	C170.951675,114.383270 171.017715,116.758568 170.988922,119.570465 
z"/>
<path fill="#C82C53" opacity="1.000000" stroke="none" 
	d="
M146.594604,134.866623 
	C148.807877,136.489761 151.177765,137.939468 153.204254,139.769455 
	C158.669800,144.704987 163.989044,149.802551 169.700302,154.918213 
	C168.006149,158.931931 165.978043,162.863266 163.316879,166.875702 
	C160.985596,165.667603 159.145493,164.526855 157.613968,163.063263 
	C151.373688,157.099792 145.227905,151.037445 139.186432,144.708954 
	C141.748581,141.226456 144.171600,138.046539 146.594604,134.866623 
z"/>
<path fill="#C72B52" opacity="1.000000" stroke="none" 
	d="
M75.823502,62.609688 
	C83.379234,69.992172 90.595291,77.408913 97.732475,85.358459 
	C94.170509,88.408012 90.687416,90.924767 87.104675,93.082230 
	C79.464775,85.057556 71.924515,77.392181 64.384254,69.726807 
	C68.084106,67.365852 71.783958,65.004906 75.823502,62.609688 
z"/>
<path fill="#C42E5C" opacity="1.000000" stroke="none" 
	d="
M64.118393,69.905914 
	C71.924515,77.392181 79.464775,85.057556 86.985855,93.382408 
	C85.349068,96.113937 83.731453,98.185982 81.923637,99.965149 
	C76.645142,94.771027 71.622452,89.798927 66.439133,85.000320 
	C64.069962,82.806976 61.384312,80.955475 58.842194,78.948936 
	C60.512306,75.994301 62.182423,73.039665 64.118393,69.905914 
z"/>
<path fill="#A93A91" opacity="1.000000" stroke="none" 
	d="
M111.003632,175.141632 
	C109.608421,175.212494 108.213219,175.283371 106.331146,174.905212 
	C105.121666,173.366196 104.557243,172.118790 103.652718,171.209839 
	C89.745804,157.234955 75.823135,143.275253 61.802692,129.414658 
	C60.608009,128.233597 58.693237,127.780922 57.112984,126.989876 
	C57.053875,125.597160 56.994766,124.204437 57.393906,122.413071 
	C59.816895,123.092476 62.154171,123.793007 63.688538,125.307175 
	C78.452751,139.876968 93.120644,154.545410 107.691307,169.308792 
	C109.208160,170.845703 109.918884,173.178253 111.003632,175.141632 
z"/>
<path fill="#C32D5B" opacity="1.000000" stroke="none" 
	d="
M139.047287,145.011551 
	C145.227905,151.037445 151.373688,157.099792 157.613968,163.063263 
	C159.145493,164.526855 160.985596,165.667603 163.041534,167.051666 
	C160.543015,169.156876 157.686783,171.167191 154.291199,172.915253 
	C148.556656,167.324219 143.288208,162.064072 138.202988,156.632355 
	C136.212326,154.506073 134.632797,151.994873 133.058350,149.401917 
	C135.182877,147.767105 137.115082,146.389328 139.047287,145.011551 
z"/>
<path fill="#BE3066" opacity="1.000000" stroke="none" 
	d="
M132.866028,149.658966 
	C134.632797,151.994873 136.212326,154.506073 138.202988,156.632355 
	C143.288208,162.064072 148.556656,167.324219 153.929382,172.954269 
	C150.360229,173.960312 146.613525,174.665070 142.354431,174.916687 
	C138.001907,170.250015 134.088028,166.100571 130.348648,161.799438 
	C128.023438,159.124924 125.962395,156.220764 124.087540,153.258026 
	C127.216866,151.950577 130.041443,150.804764 132.866028,149.658966 
z"/>
<path fill="#A63C99" opacity="1.000000" stroke="none" 
	d="
M57.022663,127.412170 
	C58.693237,127.780922 60.608009,128.233597 61.802692,129.414658 
	C75.823135,143.275253 89.745804,157.234955 103.652718,171.209839 
	C104.557243,172.118790 105.121666,173.366196 105.923157,174.797974 
	C104.281448,175.212784 102.560867,175.285767 100.421631,175.249985 
	C98.926933,173.519363 98.081459,171.669525 96.738571,170.311584 
	C85.445412,158.891815 74.089874,147.533081 62.666096,136.244049 
	C61.316921,134.910797 59.443157,134.108414 57.461716,133.026245 
	C57.051357,131.273193 56.991848,129.553833 57.022663,127.412170 
z"/>
<path fill="#AD398B" opacity="1.000000" stroke="none" 
	d="
M111.410431,175.253433 
	C109.918884,173.178253 109.208160,170.845703 107.691307,169.308792 
	C93.120644,154.545410 78.452751,139.876968 63.688538,125.307175 
	C62.154171,123.793007 59.816895,123.092476 57.482834,122.002716 
	C57.039837,120.600945 56.966160,119.210884 57.303238,117.497116 
	C62.863930,122.003227 67.881134,126.986572 73.218147,131.599976 
	C76.010292,134.013550 79.364182,135.777283 82.712425,138.035919 
	C87.306396,142.213104 91.652313,146.188889 96.033241,150.512299 
	C97.114029,152.475204 97.939743,154.300751 99.245667,155.667465 
	C103.672112,160.299973 108.381058,164.665680 112.737015,169.360672 
	C114.202019,170.939682 114.934616,173.198212 116.001968,175.146164 
	C114.607048,175.219193 113.212128,175.292221 111.410431,175.253433 
z"/>
<path fill="#BE2F65" opacity="1.000000" stroke="none" 
	d="
M58.586765,79.233841 
	C61.384312,80.955475 64.069962,82.806976 66.439133,85.000320 
	C71.622452,89.798927 76.645142,94.771027 81.882278,100.313881 
	C80.997673,103.302689 79.964233,105.649879 78.604561,107.909546 
	C73.139297,103.002113 68.077103,98.095871 62.815571,93.413612 
	C61.183540,91.961281 59.010349,91.117058 57.084915,89.994431 
	C57.500385,86.502533 57.915859,83.010643 58.586765,79.233841 
z"/>
<path fill="#D25C49" opacity="1.000000" stroke="none" 
	d="
M146.978088,61.416561 
	C160.288361,63.526829 167.691284,70.581841 170.534607,84.594429 
	C166.707657,82.640709 163.280365,80.339447 159.610794,77.811546 
	C157.245789,75.732742 155.123077,73.880585 152.972504,71.668045 
	C150.955811,68.010628 148.966949,64.713600 146.978088,61.416561 
z"/>
<path fill="#B93371" opacity="1.000000" stroke="none" 
	d="
M123.782791,153.419678 
	C125.962395,156.220764 128.023438,159.124924 130.348648,161.799438 
	C134.088028,166.100571 138.001907,170.250015 141.920105,174.805725 
	C138.960876,175.222397 135.923599,175.296890 132.365326,174.915283 
	C127.660965,169.903748 123.382385,165.430389 119.345680,160.748505 
	C117.925514,159.101349 117.098030,156.943192 116.375565,154.892761 
	C119.095062,154.318008 121.438927,153.868835 123.782791,153.419678 
z"/>
<path fill="#B9326F" opacity="1.000000" stroke="none" 
	d="
M57.000507,90.438385 
	C59.010349,91.117058 61.183540,91.961281 62.815571,93.413612 
	C68.077103,98.095871 73.139297,103.002113 78.624519,108.302925 
	C78.526398,110.854080 78.082092,112.924332 77.302879,114.955345 
	C72.408600,110.874016 67.923248,106.743484 63.252937,102.833908 
	C61.418697,101.298439 59.170578,100.257385 57.110943,98.991173 
	C57.045994,96.288231 56.981045,93.585281 57.000507,90.438385 
z"/>
<path fill="#B13883" opacity="1.000000" stroke="none" 
	d="
M116.435249,175.257309 
	C114.934616,173.198212 114.202019,170.939682 112.737015,169.360672 
	C108.381058,164.665680 103.672112,160.299973 99.245667,155.667465 
	C97.939743,154.300751 97.114029,152.475204 96.382668,150.586868 
	C100.702843,151.723297 104.708595,153.132782 108.489517,154.779449 
	C108.964638,156.632462 109.334160,158.527588 110.422493,159.815109 
	C114.827827,165.026749 119.454384,170.051407 123.999298,175.145050 
	C121.622375,175.219528 119.245453,175.293991 116.435249,175.257309 
z"/>
<path fill="#B4347A" opacity="1.000000" stroke="none" 
	d="
M124.432922,175.255798 
	C119.454384,170.051407 114.827827,165.026749 110.422493,159.815109 
	C109.334160,158.527588 108.964638,156.632462 108.884499,154.757996 
	C111.669518,154.672363 113.834724,154.845352 115.999924,155.018356 
	C117.098030,156.943192 117.925514,159.101349 119.345680,160.748505 
	C123.382385,165.430389 127.660965,169.903748 131.922882,174.801117 
	C129.623154,175.217529 127.244850,175.292023 124.432922,175.255798 
z"/>
<path fill="#B43981" opacity="1.000000" stroke="none" 
	d="
M57.103065,112.994705 
	C57.041733,110.947433 56.980400,108.900162 57.347515,106.502075 
	C62.377068,110.128654 66.917961,114.179062 71.609230,118.047096 
	C73.458267,119.571663 75.642784,120.689331 77.790123,122.385437 
	C78.307526,125.186012 78.709343,127.593414 78.746078,129.971985 
	C73.454659,125.662415 68.595970,121.299866 63.568039,117.141960 
	C61.609322,115.522194 59.269371,114.363449 57.103065,112.994705 
z"/>
<path fill="#CE3945" opacity="1.000000" stroke="none" 
	d="
M170.980347,111.578026 
	C170.232101,111.892342 169.338898,112.011902 168.960464,111.626289 
	C161.683105,104.210876 154.466110,96.736198 147.577423,88.942245 
	C149.945312,88.737427 151.972473,88.864136 154.083954,89.322617 
	C159.742096,94.772888 165.315903,99.891373 170.889709,105.009857 
	C170.951492,107.055923 171.013275,109.102005 170.980347,111.578026 
z"/>
<path fill="#B63477" opacity="1.000000" stroke="none" 
	d="
M77.674545,121.992279 
	C75.642784,120.689331 73.458267,119.571663 71.609230,118.047096 
	C66.917961,114.179062 62.377068,110.128654 57.439240,106.071198 
	C57.043106,103.944794 56.983692,101.898453 57.017609,99.421646 
	C59.170578,100.257385 61.418697,101.298439 63.252937,102.833908 
	C67.923248,106.743484 72.408600,110.874016 77.354279,115.390350 
	C77.718582,117.907158 77.696564,119.949715 77.674545,121.992279 
z"/>
<path fill="#CF4546" opacity="1.000000" stroke="none" 
	d="
M170.986176,104.563599 
	C165.315903,99.891373 159.742096,94.772888 154.349030,89.129898 
	C155.945862,87.583069 157.361984,86.560730 159.006897,85.816994 
	C163.121735,89.067047 167.007782,92.038513 170.893814,95.009979 
	C170.956757,98.045769 171.019699,101.081558 170.986176,104.563599 
z"/>
<path fill="#AF3886" opacity="1.000000" stroke="none" 
	d="
M57.014183,113.389160 
	C59.269371,114.363449 61.609322,115.522194 63.568039,117.141960 
	C68.595970,121.299866 73.454659,125.662415 78.811829,130.330536 
	C80.316559,133.090103 81.390472,135.462296 82.464378,137.834488 
	C79.364182,135.777283 76.010292,134.013550 73.218147,131.599976 
	C67.881134,126.986572 62.863930,122.003227 57.387241,117.085907 
	C57.015427,115.926804 56.970364,114.855202 57.014183,113.389160 
z"/>
<path fill="#CF4646" opacity="1.000000" stroke="none" 
	d="
M129.990967,61.241833 
	C132.694229,61.193787 135.397507,61.145741 138.556625,61.531738 
	C141.686859,65.682220 144.361221,69.398659 146.857727,73.381638 
	C145.571899,74.962532 144.463943,76.276886 143.159760,77.270996 
	C140.377411,74.201775 137.662598,71.560402 135.245804,68.669838 
	C133.306702,66.350601 131.729019,63.729164 129.990967,61.241833 
z"/>
<path fill="#CE3945" opacity="1.000000" stroke="none" 
	d="
M143.126816,84.959755 
	C141.394455,83.783134 139.455673,82.821304 137.967239,81.390862 
	C132.863403,76.485855 127.864449,71.467682 122.949196,66.373306 
	C121.745293,65.125542 121.012108,63.423588 120.026161,61.587967 
	C121.071198,61.196209 122.152588,61.146927 123.792587,61.453812 
	C130.524994,67.874222 136.698776,73.938461 142.965088,80.408325 
	C143.080673,82.195877 143.103745,83.577820 143.126816,84.959755 
z"/>
<path fill="#D05045" opacity="1.000000" stroke="none" 
	d="
M170.987549,94.563034 
	C167.007782,92.038513 163.121735,89.067047 159.079224,85.451103 
	C159.232864,82.550476 159.542969,80.294327 159.853058,78.038185 
	C163.280365,80.339447 166.707657,82.640709 170.481964,84.978088 
	C170.913071,88.048172 170.997162,91.082138 170.987549,94.563034 
z"/>
<path fill="#CF4F43" opacity="1.000000" stroke="none" 
	d="
M147.035599,73.115097 
	C144.361221,69.398659 141.686859,65.682220 138.999969,61.604557 
	C141.364380,61.222652 143.741287,61.201973 146.548141,61.298927 
	C148.966949,64.713600 150.955811,68.010628 152.591858,71.708908 
	C150.504547,72.445137 148.770081,72.780113 147.035599,73.115097 
z"/>
<path fill="#CE3D45" opacity="1.000000" stroke="none" 
	d="
M142.872574,80.002708 
	C136.698776,73.938461 130.524994,67.874222 124.193115,61.527542 
	C125.739655,61.196239 127.444283,61.147369 129.569946,61.170166 
	C131.729019,63.729164 133.306702,66.350601 135.245804,68.669838 
	C137.662598,71.560402 140.377411,74.201775 143.161469,77.581322 
	C143.197113,78.808830 143.034851,79.405769 142.872574,80.002708 
z"/>
<path fill="#FEFAFC" opacity="1.000000" stroke="none" 
	d="
M82.712425,138.035919 
	C81.390472,135.462296 80.316559,133.090103 79.176903,130.359375 
	C78.709343,127.593414 78.307526,125.186012 77.790123,122.385437 
	C77.696564,119.949715 77.718582,117.907158 77.689194,115.429581 
	C78.082092,112.924332 78.526398,110.854080 78.950745,108.390457 
	C79.964233,105.649879 80.997673,103.302689 82.072479,100.606766 
	C83.731453,98.185982 85.349068,96.113937 87.085503,93.741699 
	C90.687416,90.924767 94.170509,88.408012 97.901344,85.677879 
	C109.167580,80.767387 120.087280,80.737137 131.253632,86.179611 
	C136.186295,90.753441 140.756927,95.305328 145.602448,100.060760 
	C150.988815,111.421654 152.118042,122.684837 146.685883,134.493301 
	C144.171600,138.046539 141.748581,141.226456 139.186432,144.708954 
	C137.115082,146.389328 135.182877,147.767105 133.058350,149.401917 
	C130.041443,150.804764 127.216866,151.950577 124.087540,153.258026 
	C121.438927,153.868835 119.095062,154.318008 116.375557,154.892761 
	C113.834724,154.845352 111.669518,154.672363 109.109337,154.520813 
	C104.708595,153.132782 100.702843,151.723297 96.347664,150.239227 
	C91.652313,146.188889 87.306396,142.213104 82.712425,138.035919 
M92.239929,109.456017 
	C91.725685,111.935211 91.211441,114.414398 90.394615,117.550987 
	C90.886559,132.207153 101.346786,142.486191 115.781761,141.884186 
	C118.654945,140.986221 121.528130,140.088272 124.920792,138.786758 
	C126.667084,137.550354 128.413376,136.313950 130.763824,134.785522 
	C132.482376,131.856094 134.200943,128.926682 136.345413,125.358963 
	C139.375137,116.018944 137.003738,107.893982 130.115219,101.305855 
	C123.185013,94.677834 114.881592,93.121651 105.067741,96.592194 
	C102.261452,98.680031 99.455162,100.767868 96.070030,103.170425 
	C94.955711,105.080727 93.841400,106.991028 92.239929,109.456017 
z"/>
<path fill="#FDF7F7" opacity="1.000000" stroke="none" 
	d="
M142.965088,80.408325 
	C143.034851,79.405769 143.197113,78.808830 143.357681,77.901566 
	C144.463943,76.276886 145.571899,74.962532 146.857727,73.381638 
	C148.770081,72.780113 150.504547,72.445137 152.619690,72.069290 
	C155.123077,73.880585 157.245789,75.732742 159.610779,77.811546 
	C159.542969,80.294327 159.232864,82.550476 158.850433,85.172508 
	C157.361984,86.560730 155.945862,87.583069 154.264679,88.798119 
	C151.972473,88.864136 149.945312,88.737427 147.541687,88.579285 
	C146.007401,87.428627 144.849609,86.309418 143.409302,85.074982 
	C143.103745,83.577820 143.080673,82.195877 142.965088,80.408325 
z"/>
<path fill="#C72B54" opacity="1.000000" stroke="none" 
	d="
M96.648865,102.855698 
	C99.455162,100.767868 102.261452,98.680031 105.605354,96.856766 
	C115.188568,106.312462 124.220055,115.517609 133.309326,124.665321 
	C133.963547,125.323753 135.039581,125.563072 135.919495,125.997253 
	C134.200943,128.926682 132.482376,131.856094 130.169708,134.750854 
	C126.581207,131.841629 123.575645,128.978638 120.594627,126.090324 
	C112.607086,118.351242 104.630066,110.601318 96.648865,102.855698 
z"/>
<path fill="#CA2B4F" opacity="1.000000" stroke="none" 
	d="
M136.132446,125.678108 
	C135.039581,125.563072 133.963547,125.323753 133.309326,124.665321 
	C124.220055,115.517609 115.188568,106.312462 105.964226,96.798775 
	C114.881592,93.121651 123.185013,94.677834 130.115219,101.305855 
	C137.003738,107.893982 139.375137,116.018944 136.132446,125.678108 
z"/>
<path fill="#C02E61" opacity="1.000000" stroke="none" 
	d="
M124.401314,139.190308 
	C121.528130,140.088272 118.654945,140.986221 115.314079,141.489380 
	C106.796661,133.027573 98.746925,124.960587 90.697197,116.893600 
	C91.211441,114.414398 91.725685,111.935211 92.832916,109.268967 
	C94.878738,110.149940 96.497070,111.052383 97.757835,112.312561 
	C106.680092,121.230698 115.529007,130.222198 124.401314,139.190308 
z"/>
<path fill="#C32C5A" opacity="1.000000" stroke="none" 
	d="
M124.661057,138.988525 
	C115.529007,130.222198 106.680092,121.230698 97.757835,112.312561 
	C96.497070,111.052383 94.878738,110.149940 93.076492,108.991623 
	C93.841400,106.991028 94.955711,105.080727 96.359451,103.013062 
	C104.630066,110.601318 112.607086,118.351242 120.594627,126.090324 
	C123.575645,128.978638 126.581207,131.841629 129.867615,134.896851 
	C128.413376,136.313950 126.667084,137.550354 124.661057,138.988525 
z"/>
<path fill="#BD356D" opacity="1.000000" stroke="none" 
	d="
M90.545898,117.222290 
	C98.746925,124.960587 106.796661,133.027573 114.931793,141.420822 
	C101.346786,142.486191 90.886559,132.207153 90.545898,117.222290 
z"/>
</svg>