<svg version="1.1" id="Layer_1" xmlns="http://www.w3.org/2000/svg" xmlns:xlink="http://www.w3.org/1999/xlink" x="0px" y="0px"
	 width="100%" viewBox="0 0 231 229" enable-background="new 0 0 231 229" xml:space="preserve">
<path fill="#FEFEFE" opacity="1.000000" stroke="none" 
	d="
M230.000000,230.000000 
	C153.715302,230.000000 77.430603,230.000000 1.072950,230.000000 
	C1.072950,153.763992 1.072950,77.527893 1.072950,1.000000 
	C77.020645,1.000000 153.041672,1.000000 229.532074,1.468657 
	C230.000992,77.958206 230.000504,153.979111 230.000000,230.000000 
M50.576008,33.049030 
	C15.983222,61.920429 2.644123,98.700554 13.550683,142.280807 
	C27.308664,197.254715 79.711990,229.323502 135.569397,218.988083 
	C196.112976,207.785599 234.298386,143.577240 215.373947,84.797600 
	C192.814880,14.728713 110.524132,-11.415449 50.576008,33.049030 
z"/>
<path fill="#000000" opacity="1.000000" stroke="none" 
	d="
M230.500000,230.000000 
	C230.000504,153.979111 230.000992,77.958206 230.000732,1.468657 
	C230.666672,1.166667 231.850754,1.229731 231.908524,1.518316 
	C232.133118,2.640011 232.000000,3.833333 232.000000,5.000000 
	C232.000000,78.666664 232.005249,152.333328 231.958344,225.999969 
	C231.957504,227.333527 231.333344,228.666672 230.500000,230.000000 
z"/>
<path fill="#0D67C4" opacity="1.000000" stroke="none" 
	d="
M50.859100,32.834702 
	C110.524132,-11.415449 192.814880,14.728713 215.373947,84.797600 
	C234.298386,143.577240 196.112976,207.785599 135.569397,218.988083 
	C79.711990,229.323502 27.308664,197.254715 13.550683,142.280807 
	C2.644123,98.700554 15.983222,61.920429 50.859100,32.834702 
M107.482559,167.547470 
	C110.560272,167.547470 113.637985,167.547470 116.933754,167.547470 
	C116.933754,164.911545 116.932930,163.088715 116.933891,161.265900 
	C116.939522,150.607452 116.812775,139.946701 116.997238,129.291351 
	C117.124359,121.948349 122.605118,116.375313 130.174301,115.346832 
	C136.453842,114.493568 142.734497,118.609177 144.595367,125.129440 
	C145.219528,127.316414 145.207703,129.728714 145.219116,132.039352 
	C145.276535,143.660019 145.245468,155.281128 145.245468,167.188049 
	C152.397354,167.188049 159.084335,167.188049 165.974243,167.188049 
	C165.974243,150.662064 166.308441,134.509979 165.859863,118.379677 
	C165.547028,107.130356 156.345261,98.079453 145.242157,96.836533 
	C134.779068,95.665245 124.945190,96.567856 117.151077,106.465179 
	C116.966667,102.659218 116.837021,99.983398 116.715622,97.477951 
	C109.536789,97.477951 102.964111,97.477951 96.339233,97.477951 
	C96.339233,120.909439 96.339233,143.970169 96.339233,167.547073 
	C99.927765,167.547073 103.224472,167.547073 107.482559,167.547470 
M77.349258,167.572098 
	C79.445816,167.572098 81.542374,167.572098 83.628235,167.572098 
	C83.628235,143.758255 83.628235,120.687370 83.628235,97.490082 
	C76.648773,97.490082 69.951775,97.490082 63.254112,97.490082 
	C63.254112,120.941399 63.254112,144.012222 63.254112,167.571762 
	C67.801170,167.571762 72.095329,167.571762 77.349258,167.572098 
M67.123055,63.212940 
	C65.990402,64.182533 64.699951,65.019150 63.751865,66.144264 
	C59.145992,71.610153 60.085075,79.948235 65.717010,84.381241 
	C71.111336,88.627243 78.686447,87.693161 83.063812,82.242241 
	C86.675346,77.744980 86.929375,72.151207 83.737534,67.406601 
	C80.217033,62.173466 75.019524,60.695271 67.123055,63.212940 
z"/>
<path fill="#FBFCFD" opacity="1.000000" stroke="none" 
	d="
M107.001869,167.547272 
	C103.224472,167.547073 99.927765,167.547073 96.339233,167.547073 
	C96.339233,143.970169 96.339233,120.909439 96.339233,97.477951 
	C102.964111,97.477951 109.536789,97.477951 116.715622,97.477951 
	C116.837021,99.983398 116.966667,102.659218 117.151077,106.465179 
	C124.945190,96.567856 134.779068,95.665245 145.242157,96.836533 
	C156.345261,98.079453 165.547028,107.130356 165.859863,118.379677 
	C166.308441,134.509979 165.974243,150.662064 165.974243,167.188049 
	C159.084335,167.188049 152.397354,167.188049 145.245468,167.188049 
	C145.245468,155.281128 145.276535,143.660019 145.219116,132.039352 
	C145.207703,129.728714 145.219528,127.316414 144.595367,125.129440 
	C142.734497,118.609177 136.453842,114.493568 130.174301,115.346832 
	C122.605118,116.375313 117.124359,121.948349 116.997238,129.291351 
	C116.812775,139.946701 116.939522,150.607452 116.933891,161.265900 
	C116.932930,163.088715 116.933754,164.911545 116.933754,167.547470 
	C113.637985,167.547470 110.560272,167.547470 107.001869,167.547272 
z"/>
<path fill="#FAFBFD" opacity="1.000000" stroke="none" 
	d="
M76.869370,167.571930 
	C72.095329,167.571762 67.801170,167.571762 63.254112,167.571762 
	C63.254112,144.012222 63.254112,120.941399 63.254112,97.490082 
	C69.951775,97.490082 76.648773,97.490082 83.628235,97.490082 
	C83.628235,120.687370 83.628235,143.758255 83.628235,167.572098 
	C81.542374,167.572098 79.445816,167.572098 76.869370,167.571930 
z"/>
<path fill="#FAFBFD" opacity="1.000000" stroke="none" 
	d="
M67.489761,63.051464 
	C75.019524,60.695271 80.217033,62.173466 83.737534,67.406601 
	C86.929375,72.151207 86.675346,77.744980 83.063812,82.242241 
	C78.686447,87.693161 71.111336,88.627243 65.717010,84.381241 
	C60.085075,79.948235 59.145992,71.610153 63.751865,66.144264 
	C64.699951,65.019150 65.990402,64.182533 67.489761,63.051464 
z"/>
</svg>